<svg width="27" height="34" viewBox="0 0 27 34" fill="none" xmlns="http://www.w3.org/2000/svg">
<path d="M11.0454 0.901367C13.8112 -0.00772904 16.5392 2.25826 16.4878 5.28809L16.0747 29.665L16.0708 29.8789L15.8677 29.9453L7.75537 32.5869C4.31459 33.7071 0.910285 30.899 0.958496 27.1123L1.2085 7.58203C1.23473 5.53152 2.49088 3.71456 4.34326 3.10547L11.0454 0.901367ZM13.4146 5.22852C13.4291 4.35442 12.6614 3.7836 11.9556 4.01562L5.25342 6.21973C4.6943 6.40357 4.29023 6.96439 4.28174 7.62598L4.03174 27.1562C4.01081 28.7966 5.46428 29.9219 6.85303 29.4697L13.0366 27.4551L13.4146 5.22852Z" fill="#FE7244" stroke="#FE7244" stroke-width="0.6"/>
<path d="M20.0443 5.28369C23.1443 4.11445 26.3262 6.61593 26.3001 10.0669L26.2054 22.5015C26.1865 24.9704 24.6674 27.1555 22.4359 27.8638L12.8089 30.9185L12.4124 31.0444L12.4183 30.6284L12.7269 8.24756L12.7298 8.04248L12.9212 7.97119L20.0443 5.28369ZM23.2259 10.0405C23.2353 8.78614 22.1028 7.96815 21.0745 8.35596L15.7718 10.356L15.5462 26.646L21.554 24.7407L21.723 24.6782C22.5503 24.3342 23.1236 23.4709 23.1312 22.4751L23.2259 10.0405Z" fill="#FE7244" stroke="#FE7244" stroke-width="0.6"/>
<path d="M10.6848 0.962158C13.5753 -0.0179033 16.4631 2.31067 16.4631 5.49146V9.08325L16.2698 9.15649L7.67505 12.4114C4.13057 13.7539 0.640143 10.4779 1.28833 6.60278C1.55445 5.01188 2.62137 3.69609 4.07739 3.20239L10.6848 0.962158ZM13.3899 5.49146C13.3899 4.45524 12.47 3.77992 11.6213 4.06763L5.01392 6.30884C4.66056 6.42865 4.38355 6.75562 4.31372 7.1731C4.06345 8.67067 5.39814 9.8116 6.64087 9.34106L13.3899 6.78442V5.49146Z" fill="#FE7244" stroke="#FE7244" stroke-width="0.6"/>
</svg>
