<svg width="140" height="30" viewBox="0 0 140 30" fill="none" xmlns="http://www.w3.org/2000/svg">
<path d="M7.51151 24.2045C6.18351 24.2045 4.89551 24.0285 3.64751 23.6765C2.41551 23.3085 1.42351 22.8365 0.671512 22.2605L1.99151 19.3325C2.71151 19.8605 3.56751 20.2845 4.55951 20.6045C5.55151 20.9245 6.54351 21.0845 7.53551 21.0845C8.63951 21.0845 9.45551 20.9245 9.98351 20.6045C10.5115 20.2685 10.7755 19.8285 10.7755 19.2845C10.7755 18.8845 10.6155 18.5565 10.2955 18.3005C9.99151 18.0285 9.59151 17.8125 9.09551 17.6525C8.61551 17.4925 7.95951 17.3165 7.12751 17.1245C5.84751 16.8205 4.79951 16.5165 3.98351 16.2125C3.16751 15.9085 2.46351 15.4205 1.87151 14.7485C1.29551 14.0765 1.00751 13.1805 1.00751 12.0605C1.00751 11.0845 1.27151 10.2045 1.79951 9.4205C2.32751 8.6205 3.11951 7.9885 4.17551 7.5245C5.24751 7.0605 6.55151 6.8285 8.08751 6.8285C9.15951 6.8285 10.2075 6.9565 11.2315 7.2125C12.2555 7.4685 13.1515 7.8365 13.9195 8.3165L12.7195 11.2685C11.1675 10.3885 9.61551 9.9485 8.06351 9.9485C6.97551 9.9485 6.16751 10.1245 5.63951 10.4765C5.12751 10.8285 4.87151 11.2925 4.87151 11.8685C4.87151 12.4445 5.16751 12.8765 5.75951 13.1645C6.36751 13.4365 7.28751 13.7085 8.51951 13.9805C9.79951 14.2845 10.8475 14.5885 11.6635 14.8925C12.4795 15.1965 13.1755 15.6765 13.7515 16.3325C14.3435 16.9885 14.6395 17.8765 14.6395 18.9965C14.6395 19.9565 14.3675 20.8365 13.8235 21.6365C13.2955 22.4205 12.4955 23.0445 11.4235 23.5085C10.3515 23.9725 9.04751 24.2045 7.51151 24.2045ZM23.4162 17.3165L21.1602 19.6685V23.9165H17.2962V7.1165H21.1602V14.9645L28.6002 7.1165H32.9202L25.9602 14.6045L33.3282 23.9165H28.7922L23.4162 17.3165ZM35.0618 7.1165H38.9498V23.9165H35.0618V7.1165ZM42.9368 7.1165H46.8248V20.7485H55.2488V23.9165H42.9368V7.1165ZM57.4212 7.1165H61.3092V20.7485H69.7332V23.9165H57.4212V7.1165ZM79.6643 24.2045C77.9523 24.2045 76.4003 23.8365 75.0083 23.1005C73.6323 22.3485 72.5443 21.3165 71.7443 20.0045C70.9603 18.6765 70.5683 17.1805 70.5683 15.5165C70.5683 13.8525 70.9603 12.3645 71.7443 11.0525C72.5443 9.7245 73.6323 8.6925 75.0083 7.9565C76.4003 7.2045 77.9603 6.8285 79.6883 6.8285C81.1443 6.8285 82.4563 7.0845 83.6243 7.5965C84.8083 8.1085 85.8003 8.8445 86.6003 9.8045L84.1043 12.1085C82.9683 10.7965 81.5603 10.1405 79.8803 10.1405C78.8403 10.1405 77.9123 10.3725 77.0963 10.8365C76.2803 11.2845 75.6403 11.9165 75.1763 12.7325C74.7283 13.5485 74.5043 14.4765 74.5043 15.5165C74.5043 16.5565 74.7283 17.4845 75.1763 18.3005C75.6403 19.1165 76.2803 19.7565 77.0963 20.2205C77.9123 20.6685 78.8403 20.8925 79.8803 20.8925C81.5603 20.8925 82.9683 20.2285 84.1043 18.9005L86.6003 21.2045C85.8003 22.1805 84.8083 22.9245 83.6243 23.4365C82.4403 23.9485 81.1203 24.2045 79.6643 24.2045ZM99.9618 20.3165H92.1618L90.6738 23.9165H86.6898L94.1778 7.1165H98.0178L105.53 23.9165H101.45L99.9618 20.3165ZM98.7378 17.3645L96.0738 10.9325L93.4098 17.3645H98.7378ZM117.977 23.9165L114.737 19.2365H114.545H111.161V23.9165H107.273V7.1165H114.545C116.033 7.1165 117.321 7.3645 118.409 7.8605C119.513 8.3565 120.361 9.0605 120.953 9.9725C121.545 10.8845 121.841 11.9645 121.841 13.2125C121.841 14.4605 121.537 15.5405 120.929 16.4525C120.337 17.3485 119.489 18.0365 118.385 18.5165L122.153 23.9165H117.977ZM117.905 13.2125C117.905 12.2685 117.601 11.5485 116.993 11.0525C116.385 10.5405 115.497 10.2845 114.329 10.2845H111.161V16.1405H114.329C115.497 16.1405 116.385 15.8845 116.993 15.3725C117.601 14.8605 117.905 14.1405 117.905 13.2125ZM137.929 20.7965V23.9165H124.921V7.1165H137.617V10.2365H128.785V13.8845H136.585V16.9085H128.785V20.7965H137.929Z" fill="#3D3D3D"/>
</svg>
